<svg width="22" height="22" viewBox="0 0 22 22" fill="none" xmlns="http://www.w3.org/2000/svg">
<path d="M14.088 6.412C13.7435 5.96729 13.2747 5.6349 12.741 5.457L11.363 5.009C11.2572 4.97134 11.1657 4.90187 11.1009 4.81011C11.0362 4.71835 11.0014 4.6088 11.0014 4.4965C11.0014 4.3842 11.0362 4.27466 11.1009 4.1829C11.1657 4.09114 11.2572 4.02166 11.363 3.984L12.741 3.536C13.1488 3.39519 13.5191 3.16333 13.8239 2.85803C14.1287 2.55273 14.3599 2.18201 14.5 1.774L14.511 1.74L14.959 0.363003C14.9962 0.256517 15.0657 0.164243 15.1577 0.0989551C15.2497 0.0336676 15.3597 -0.00140381 15.4725 -0.00140381C15.5853 -0.00140381 15.6953 0.0336676 15.7873 0.0989551C15.8793 0.164243 15.9488 0.256517 15.986 0.363003L16.433 1.74C16.5727 2.15855 16.8081 2.53877 17.1203 2.85052C17.4326 3.16227 17.8132 3.39697 18.232 3.536L19.609 3.984L19.637 3.991C19.7428 4.02866 19.8343 4.09814 19.8991 4.1899C19.9638 4.28166 19.9986 4.3912 19.9986 4.5035C19.9986 4.6158 19.9638 4.72535 19.8991 4.81711C19.8343 4.90887 19.7428 4.97834 19.637 5.016L18.259 5.464C17.8404 5.60317 17.46 5.83793 17.1479 6.14967C16.8358 6.46141 16.6006 6.84157 16.461 7.26L16.013 8.637L16 8.671C15.9568 8.77163 15.8842 8.85687 15.7918 8.91558C15.6993 8.97429 15.5913 9.00373 15.4819 9.00006C15.3724 8.99639 15.2666 8.95977 15.1784 8.89499C15.0901 8.83021 15.0234 8.7403 14.987 8.637L14.539 7.26C14.4389 6.95354 14.2867 6.66666 14.089 6.412M21.784 10.213L21.018 9.965C20.7856 9.88729 20.5744 9.75658 20.4012 9.5832C20.228 9.40981 20.0975 9.19851 20.02 8.966L19.77 8.202C19.7493 8.14293 19.7107 8.09176 19.6597 8.05555C19.6086 8.01935 19.5476 7.9999 19.485 7.9999C19.4224 7.9999 19.3614 8.01935 19.3103 8.05555C19.2593 8.09176 19.2207 8.14293 19.2 8.202L18.952 8.966C18.8759 9.19702 18.7476 9.40736 18.5769 9.58064C18.4062 9.75392 18.1978 9.88546 17.968 9.965L17.203 10.213C17.1439 10.2337 17.0928 10.2723 17.0565 10.3233C17.0203 10.3744 17.0009 10.4354 17.0009 10.498C17.0009 10.5606 17.0203 10.6216 17.0565 10.6727C17.0928 10.7238 17.1439 10.7623 17.203 10.783L17.968 11.032C18.2011 11.1097 18.4129 11.2408 18.5865 11.4147C18.7601 11.5887 18.8907 11.8007 18.968 12.034L19.216 12.798C19.2367 12.8571 19.2753 12.9082 19.3263 12.9445C19.3774 12.9807 19.4384 13.0001 19.501 13.0001C19.5636 13.0001 19.6246 12.9807 19.6757 12.9445C19.7267 12.9082 19.7653 12.8571 19.786 12.798L20.035 12.034C20.1126 11.8014 20.2432 11.59 20.4166 11.4166C20.59 11.2432 20.8014 11.1126 21.034 11.035L21.799 10.787C21.8581 10.7663 21.9092 10.7278 21.9454 10.6767C21.9817 10.6256 22.0011 10.5646 22.0011 10.502C22.0011 10.4394 21.9817 10.3784 21.9454 10.3273C21.9092 10.2763 21.8581 10.2377 21.799 10.217L21.784 10.213ZM10 2C10.957 2 11.883 2.134 12.759 2.385C12.643 2.4568 12.5192 2.51517 12.39 2.559L11.05 2.999C10.7681 3.0995 10.5189 3.27475 10.329 3.506C9.1859 3.46172 8.04561 3.64864 6.97647 4.05556C5.90732 4.46248 4.93132 5.08103 4.10693 5.87414C3.28253 6.66725 2.62672 7.61861 2.17877 8.67122C1.73082 9.72384 1.49995 10.856 1.5 12C1.5 13.47 1.873 14.883 2.573 16.137L2.723 16.407L1.611 20.391L5.598 19.279L5.868 19.429C7.05324 20.0882 8.37897 20.4542 9.73451 20.4966C11.09 20.539 12.4361 20.2565 13.6602 19.6726C14.8843 19.0888 15.9509 18.2207 16.7711 17.1406C17.5913 16.0605 18.1413 14.7999 18.375 13.464C18.4657 13.5987 18.5773 13.7137 18.71 13.809C18.8658 13.9204 19.0445 13.9957 19.233 14.0294C19.4216 14.0631 19.6152 14.0545 19.8 14.004C18.87 18.567 14.836 22 10 22C8.40399 22.0022 6.83082 21.6208 5.413 20.888L1.587 21.955C1.37354 22.0146 1.14808 22.0163 0.933725 21.9601C0.719366 21.9038 0.523816 21.7916 0.36711 21.6349C0.210404 21.4782 0.0981773 21.2826 0.0419279 21.0683C-0.0143215 20.8539 -0.0125708 20.6285 0.0470007 20.415L1.115 16.592C0.380353 15.1729 -0.00207643 13.598 7.87551e-07 12C7.87551e-07 6.477 4.477 2 10 2Z" fill="white"/>
</svg>
