<svg width="22" height="22" viewBox="0 0 22 22" fill="none" xmlns="http://www.w3.org/2000/svg">
<path d="M3.513 18.487C6.025 20.879 9.016 19.922 10.213 18.953C10.831 18.452 11.11 18.128 11.349 17.888C12.186 17.111 12.133 16.333 11.589 15.711C11.37 15.462 9.973 14.12 8.633 12.744C7.939 12.05 7.461 11.56 7.051 11.164C6.504 10.618 6.025 9.992 5.307 10.01C4.649 10.01 4.171 10.59 3.572 11.189C2.884 11.877 2.376 12.744 2.197 13.522C1.658 15.795 2.496 17.41 3.513 18.487ZM3.513 18.487L1 20.999M18.487 3.515C15.974 1.121 12.993 2.095 11.797 3.065C11.177 3.567 10.899 3.891 10.659 4.131C9.822 4.909 9.875 5.687 10.42 6.309C10.498 6.399 10.73 6.629 11.055 6.953M18.487 3.515C19.504 4.592 20.353 6.225 19.814 8.5C19.634 9.278 19.126 10.145 18.438 10.834C17.84 11.432 17.361 12.013 16.703 12.013C15.985 12.031 15.613 11.511 15.064 10.965M18.487 3.515L21 1M11.055 6.953C11.636 7.528 12.518 8.395 13.376 9.277C14.07 9.971 14.654 10.569 15.064 10.964L13.502 12.488M11.055 6.953L9.512 8.505" stroke="#535862" stroke-width="1.5" stroke-linecap="round" stroke-linejoin="round"/>
</svg>
