<svg width="45" height="44" viewBox="0 0 45 44" fill="none" xmlns="http://www.w3.org/2000/svg">
<path d="M1.86792 1.54747L21.8489 12.8486L21.6129 19.9652L1.86792 1.54747ZM2.64038 0.193597L0.799062 2.68239L20.544 21.1001L23.1752 20.0159L23.4113 12.8993L22.6214 11.4947L2.64038 0.193597Z" fill="#A4A7AE"/>
<path d="M43.1401 1.55683L33.1007 10.9139C31.8937 12.0395 30.44 12.5455 29.0157 12.5442C27.7859 12.5442 26.5789 12.1663 25.5691 11.4854L43.1401 1.55683ZM43.1415 0V1.24705L42.3703 0.202952L24.7993 10.1314L24.6934 12.7738C25.9795 13.6417 27.4748 14.101 29.0171 14.101C30.9201 14.101 32.7507 13.3733 34.1695 12.0501L44.209 2.69308L43.1415 1.24839V0.0013365V0Z" fill="#A4A7AE"/>
<path d="M1.86792 1.54747L11.2663 11.5428C13.3718 13.7819 13.3182 16.8702 11.8403 19.0412L1.86792 1.54747ZM3.00918 0.483324L0.508046 2.31521L10.4804 19.8089L13.1345 19.9144C14.0692 18.5418 14.5399 16.8822 14.4595 15.2412C14.3723 13.4601 13.6629 11.8125 12.4089 10.4786L3.01053 0.483324H3.00918Z" fill="#A4A7AE"/>
<path d="M43.1401 1.55683L31.7891 21.4499L24.6411 21.2149L43.1401 1.55683ZM43.1415 0V1.32851L42.0002 0.492679L23.5011 20.1508L24.5901 22.7704L31.7381 23.0054L33.149 22.219L44.5 2.3259L43.1415 1.32985V0.0013365V0Z" fill="#A4A7AE"/>
<path d="M33.1584 25.1524L43.1307 42.6461L33.7323 32.6508C31.6268 30.4117 31.6805 27.3234 33.1584 25.1524ZM31.8642 24.2792C30.9295 25.6518 30.4587 27.3114 30.5392 28.9524C30.6264 30.7335 31.3358 32.3812 32.5897 33.715L41.9881 43.7103L44.4893 41.8784L34.5169 24.3847L31.8629 24.2792H31.8642Z" fill="#A4A7AE"/>
<path d="M23.3858 24.2284L43.1307 42.6461L23.1498 31.345L23.3858 24.2284ZM24.4546 23.0935L21.8234 24.1777L21.5874 31.2943L22.3773 32.6989L42.3583 44L44.1996 41.5112L24.4546 23.0935Z" fill="#A4A7AE"/>
<path d="M15.983 31.6494C17.2127 31.6494 18.4197 32.0273 19.4296 32.7083L1.85853 42.6368L11.898 33.2797C13.105 32.1542 14.5587 31.6481 15.9816 31.6494M15.983 30.094C14.0799 30.094 12.2493 30.8216 10.8305 32.1448L0.791015 41.5019L2.631 43.992L20.202 34.0635L20.308 31.4211C19.0219 30.5533 17.5265 30.094 15.9843 30.094H15.983Z" fill="#A4A7AE"/>
<path d="M13.2096 22.745L20.3576 22.98L1.85853 42.6381L13.2096 22.745ZM13.2619 21.1882L11.851 21.9746L0.5 41.8677L2.9998 43.7009L21.4989 24.0428L20.4099 21.4232L13.2619 21.1882Z" fill="#A4A7AE"/>
</svg>
