<svg width="24" height="24" viewBox="0 0 24 24" fill="none" xmlns="http://www.w3.org/2000/svg">
<mask id="mask0_143_3802" style="mask-type:luminance" maskUnits="userSpaceOnUse" x="0" y="0" width="24" height="24">
<path d="M0 0H24V24H0V0Z" fill="white"/>
</mask>
<g mask="url(#mask0_143_3802)">
<path d="M12.1746 3.01494L12 2.70245L11.8254 3.01494L8.53591 8.90244L8.36966 9.19999H8.7105H15.2895H15.6304L15.4641 8.90244L12.1746 3.01494ZM17.3919 8.55758L17.3919 8.55759C17.5345 8.81251 17.6079 9.10027 17.6048 9.39231C17.6018 9.68435 17.5225 9.97053 17.3747 10.2224C17.227 10.4744 17.0159 10.6833 16.7625 10.8284C16.509 10.9736 16.2221 11.05 15.93 11.05H8.07017C7.77823 11.0497 7.49142 10.9732 7.23818 10.8279C6.98493 10.6827 6.77406 10.4738 6.62645 10.2219C6.47884 9.96999 6.39963 9.6839 6.39667 9.39197C6.39371 9.10004 6.4671 8.81241 6.60957 8.55759L6.6096 8.55755L10.5381 1.5271C10.5381 1.52709 10.5381 1.52707 10.5381 1.52705C10.6835 1.26705 10.8956 1.05053 11.1526 0.899819C11.4096 0.749094 11.7021 0.669635 12 0.669635C12.2979 0.669635 12.5905 0.749094 12.8474 0.899819C13.1044 1.05054 13.3165 1.26706 13.4619 1.52708C13.4619 1.52709 13.4619 1.52709 13.4619 1.5271L17.3919 8.55758ZM21 20.45H21.2V20.25V15V14.8H21H15.75H15.55V15V20.25V20.45H15.75H21ZM1.25436 19.5773L1.06989 19.6546L1.25436 19.5773C0.995294 18.959 0.861922 18.2954 0.862018 17.625C0.862114 16.9546 0.995675 16.291 1.25491 15.6728C1.51415 15.0546 1.89388 14.4942 2.37195 14.0243C2.85002 13.5544 3.41687 13.1843 4.03944 12.9357C4.662 12.6872 5.32783 12.565 5.99809 12.5765C7.32246 12.599 8.58494 13.141 9.51346 14.0857C10.442 15.0303 10.9622 16.3019 10.962 17.6264C10.9618 18.951 10.4412 20.2225 9.51245 21.1668C8.58366 22.1112 7.32103 22.6528 5.99665 22.675C5.32639 22.6863 4.66059 22.5639 4.0381 22.3152C3.4156 22.0664 2.84886 21.6962 2.37092 21.2262C1.89298 20.7561 1.51342 20.1956 1.25436 19.5773ZM8.26275 19.8877C8.86286 19.2876 9.2 18.4737 9.2 17.625C9.2 16.7763 8.86286 15.9624 8.26275 15.3622C7.66263 14.7621 6.8487 14.425 6 14.425C5.15131 14.425 4.33738 14.7621 3.73726 15.3622C3.13714 15.9624 2.8 16.7763 2.8 17.625C2.8 18.4737 3.13714 19.2876 3.73726 19.8877C4.33738 20.4878 5.15131 20.825 6 20.825C6.8487 20.825 7.66263 20.4878 8.26275 19.8877ZM13.7 14.625C13.7 13.7004 14.4505 12.95 15.375 12.95H21.375C22.2995 12.95 23.05 13.7004 23.05 14.625V20.625C23.05 21.5495 22.2995 22.3 21.375 22.3H15.375C14.4505 22.3 13.7 21.5495 13.7 20.625V14.625Z" fill="#535862" stroke="white" stroke-width="0.4"/>
</g>
</svg>
